<svg width="9" height="15" viewBox="0 0 9 15" fill="none" xmlns="http://www.w3.org/2000/svg">
<path fill-rule="evenodd" clip-rule="evenodd" d="M8.01533 7.33155C8.28119 6.67418 7.79738 5.95661 7.08828 5.95661H6.90475C6.35246 5.95661 5.90474 5.50889 5.90474 4.95661V3.84672C5.90474 3.26439 6.38261 3.31925 6.97141 3.31925H7.03808C7.59036 3.31925 8.03808 2.87153 8.03808 2.31925V1.68189C8.03808 1.1296 7.59036 0.681885 7.03808 0.681885H5.90474C5.05605 0.681885 4.24212 1.01532 3.642 1.60884C3.04189 2.20237 2.70474 3.00735 2.70474 3.84672V4.95661C2.70474 5.50889 2.25703 5.95661 1.70474 5.95661H1.57141C1.01913 5.95661 0.571411 6.40433 0.571411 6.95661V7.59397C0.571411 8.14626 1.01913 8.59397 1.57141 8.59397H1.70475C2.25703 8.59397 2.70474 9.04169 2.70474 9.59397V13.3962C2.70474 13.9485 3.15246 14.3962 3.70474 14.3962H4.90474C5.45703 14.3962 5.90474 13.9485 5.90474 13.3962V9.54963C5.90474 9.02183 6.33261 8.59397 6.8604 8.59397C7.24984 8.59397 7.60032 8.35766 7.74634 7.99663L8.01533 7.33155Z" fill="#9893A3"/>
</svg>
